<svg data-v-1084b650="" xmlns="http://www.w3.org/2000/svg" viewBox="0 0 300 300"><!----> <!----> <rect data-v-1084b650="" fill="#003FBA" x="0" y="0" width="300px" height="300px" class="logo-background-square"></rect> <!----> <!----> <g data-v-1084b650="" id="6ba046e5-a326-02f0-20b6-b5ecf4230c50" fill="#34A1E5" stroke="none" transform="matrix(0.6999999999999997,0,0,0.6999999999999997,44.99682619571689,48.75199775695805)"><svg xmlns="http://www.w3.org/2000/svg" viewBox="0 0 75 75"><path d="M55.016 60.418a3.102 3.102 0 0 1-1.95-.688 3.1 3.1 0 0 1-.46-4.355l14.523-17.969-14.512-17.765a3.099 3.099 0 0 1 4.797-3.922L73.52 35.437a3.1 3.1 0 0 1 .011 3.907L57.426 59.266a3.093 3.093 0 0 1-2.41 1.152zm-35.032 0a3.082 3.082 0 0 1-2.398-1.14L1.484 39.562a3.094 3.094 0 0 1-.011-3.907l16.105-19.922a3.088 3.088 0 0 1 4.352-.46 3.092 3.092 0 0 1 .465 4.351L7.87 37.594l14.512 17.77a3.096 3.096 0 0 1-.438 4.359 3.12 3.12 0 0 1-1.96.695zm0 0"></path><path d="M25.082 63.742L46.234 8.578h5.25L30.18 63.742zm0 0"></path></svg></g></svg>